<?xml version="1.0" encoding="iso-8859-1"?>
<!-- Uploaded to: SVG Repo, www.svgrepo.com, Generator: SVG Repo Mixer Tools -->
<!DOCTYPE svg PUBLIC "-//W3C//DTD SVG 1.1//EN" "http://www.w3.org/Graphics/SVG/1.1/DTD/svg11.dtd">
<svg fill="#000000" height="800px" width="800px" version="1.1" id="Capa_1" xmlns="http://www.w3.org/2000/svg" xmlns:xlink="http://www.w3.org/1999/xlink" 
	 viewBox="0 0 71.75 71.75" xml:space="preserve" style="background-color:white">
<path d="M66.75,0H5C4.447,0,4,0.448,4,1v69.75c0,0.552,0.447,1,1,1h61.75c0.553,0,1-0.448,1-1V1C67.75,0.448,67.303,0,66.75,0z
	 M65.75,69.75H6V2h59.75V69.75z M8.292,6.294c0-0.276,0.224-0.5,0.5-0.5h3.125c0.276,0,0.5,0.224,0.5,0.5s-0.224,0.5-0.5,0.5H8.792
	C8.516,6.794,8.292,6.571,8.292,6.294z M8.292,10.52c0-0.276,0.224-0.5,0.5-0.5h3.125c0.276,0,0.5,0.224,0.5,0.5s-0.224,0.5-0.5,0.5
	H8.792C8.516,11.02,8.292,10.796,8.292,10.52z M8.292,14.746c0-0.276,0.224-0.5,0.5-0.5h3.125c0.276,0,0.5,0.224,0.5,0.5
	s-0.224,0.5-0.5,0.5H8.792C8.516,15.246,8.292,15.022,8.292,14.746z M8.292,18.972c0-0.276,0.224-0.5,0.5-0.5h3.125
	c0.276,0,0.5,0.224,0.5,0.5s-0.224,0.5-0.5,0.5H8.792C8.516,19.472,8.292,19.248,8.292,18.972z M8.292,23.198
	c0-0.276,0.224-0.5,0.5-0.5h3.125c0.276,0,0.5,0.224,0.5,0.5s-0.224,0.5-0.5,0.5H8.792C8.516,23.698,8.292,23.474,8.292,23.198z
	 M8.292,27.423c0-0.276,0.224-0.5,0.5-0.5h3.125c0.276,0,0.5,0.224,0.5,0.5s-0.224,0.5-0.5,0.5H8.792
	C8.516,27.923,8.292,27.7,8.292,27.423z M8.292,31.649c0-0.276,0.224-0.5,0.5-0.5h3.125c0.276,0,0.5,0.224,0.5,0.5
	s-0.224,0.5-0.5,0.5H8.792C8.516,32.149,8.292,31.926,8.292,31.649z M8.292,35.875c0-0.276,0.224-0.5,0.5-0.5h3.125
	c0.276,0,0.5,0.224,0.5,0.5s-0.224,0.5-0.5,0.5H8.792C8.516,36.375,8.292,36.151,8.292,35.875z M8.292,40.101
	c0-0.276,0.224-0.5,0.5-0.5h3.125c0.276,0,0.5,0.224,0.5,0.5s-0.224,0.5-0.5,0.5H8.792C8.516,40.601,8.292,40.377,8.292,40.101z
	 M8.292,44.327c0-0.276,0.224-0.5,0.5-0.5h3.125c0.276,0,0.5,0.224,0.5,0.5s-0.224,0.5-0.5,0.5H8.792
	C8.516,44.827,8.292,44.603,8.292,44.327z M8.292,48.552c0-0.276,0.224-0.5,0.5-0.5h3.125c0.276,0,0.5,0.224,0.5,0.5
	s-0.224,0.5-0.5,0.5H8.792C8.516,49.052,8.292,48.829,8.292,48.552z M8.292,52.778c0-0.276,0.224-0.5,0.5-0.5h3.125
	c0.276,0,0.5,0.224,0.5,0.5s-0.224,0.5-0.5,0.5H8.792C8.516,53.278,8.292,53.055,8.292,52.778z M8.292,57.004
	c0-0.276,0.224-0.5,0.5-0.5h3.125c0.276,0,0.5,0.224,0.5,0.5s-0.224,0.5-0.5,0.5H8.792C8.516,57.504,8.292,57.28,8.292,57.004z
	 M8.292,61.23c0-0.276,0.224-0.5,0.5-0.5h3.125c0.276,0,0.5,0.224,0.5,0.5s-0.224,0.5-0.5,0.5H8.792
	C8.516,61.73,8.292,61.506,8.292,61.23z M8.292,65.456c0-0.276,0.224-0.5,0.5-0.5h3.125c0.276,0,0.5,0.224,0.5,0.5
	s-0.224,0.5-0.5,0.5H8.792C8.516,65.956,8.292,65.732,8.292,65.456z M59.625,6.294c0-0.276,0.224-0.5,0.5-0.5h3.125
	c0.276,0,0.5,0.224,0.5,0.5s-0.224,0.5-0.5,0.5h-3.125C59.849,6.794,59.625,6.571,59.625,6.294z M59.625,10.52
	c0-0.276,0.224-0.5,0.5-0.5h3.125c0.276,0,0.5,0.224,0.5,0.5s-0.224,0.5-0.5,0.5h-3.125C59.849,11.02,59.625,10.796,59.625,10.52z
	 M59.625,14.746c0-0.276,0.224-0.5,0.5-0.5h3.125c0.276,0,0.5,0.224,0.5,0.5s-0.224,0.5-0.5,0.5h-3.125
	C59.849,15.246,59.625,15.022,59.625,14.746z M59.625,18.972c0-0.276,0.224-0.5,0.5-0.5h3.125c0.276,0,0.5,0.224,0.5,0.5
	s-0.224,0.5-0.5,0.5h-3.125C59.849,19.472,59.625,19.248,59.625,18.972z M59.625,23.198c0-0.276,0.224-0.5,0.5-0.5h3.125
	c0.276,0,0.5,0.224,0.5,0.5s-0.224,0.5-0.5,0.5h-3.125C59.849,23.698,59.625,23.474,59.625,23.198z M59.625,27.423
	c0-0.276,0.224-0.5,0.5-0.5h3.125c0.276,0,0.5,0.224,0.5,0.5s-0.224,0.5-0.5,0.5h-3.125C59.849,27.923,59.625,27.7,59.625,27.423z
	 M59.625,31.649c0-0.276,0.224-0.5,0.5-0.5h3.125c0.276,0,0.5,0.224,0.5,0.5s-0.224,0.5-0.5,0.5h-3.125
	C59.849,32.149,59.625,31.926,59.625,31.649z M59.625,35.875c0-0.276,0.224-0.5,0.5-0.5h3.125c0.276,0,0.5,0.224,0.5,0.5
	s-0.224,0.5-0.5,0.5h-3.125C59.849,36.375,59.625,36.151,59.625,35.875z M59.625,40.101c0-0.276,0.224-0.5,0.5-0.5h3.125
	c0.276,0,0.5,0.224,0.5,0.5s-0.224,0.5-0.5,0.5h-3.125C59.849,40.601,59.625,40.377,59.625,40.101z M59.625,44.327
	c0-0.276,0.224-0.5,0.5-0.5h3.125c0.276,0,0.5,0.224,0.5,0.5s-0.224,0.5-0.5,0.5h-3.125C59.849,44.827,59.625,44.603,59.625,44.327z
	 M59.625,48.552c0-0.276,0.224-0.5,0.5-0.5h3.125c0.276,0,0.5,0.224,0.5,0.5s-0.224,0.5-0.5,0.5h-3.125
	C59.849,49.052,59.625,48.829,59.625,48.552z M59.625,52.778c0-0.276,0.224-0.5,0.5-0.5h3.125c0.276,0,0.5,0.224,0.5,0.5
	s-0.224,0.5-0.5,0.5h-3.125C59.849,53.278,59.625,53.055,59.625,52.778z M59.625,57.004c0-0.276,0.224-0.5,0.5-0.5h3.125
	c0.276,0,0.5,0.224,0.5,0.5s-0.224,0.5-0.5,0.5h-3.125C59.849,57.504,59.625,57.28,59.625,57.004z M59.625,61.23
	c0-0.276,0.224-0.5,0.5-0.5h3.125c0.276,0,0.5,0.224,0.5,0.5s-0.224,0.5-0.5,0.5h-3.125C59.849,61.73,59.625,61.506,59.625,61.23z
	 M59.625,65.456c0-0.276,0.224-0.5,0.5-0.5h3.125c0.276,0,0.5,0.224,0.5,0.5s-0.224,0.5-0.5,0.5h-3.125
	C59.849,65.956,59.625,65.732,59.625,65.456z M32.998,17.885c-0.133-0.114-0.198-0.3-0.198-0.558V7.413
	c0-0.258,0.065-0.444,0.198-0.558c0.131-0.114,0.294-0.171,0.487-0.171h5.678c0.053,0,0.1,0.015,0.141,0.044
	s0.076,0.081,0.105,0.154s0.051,0.167,0.065,0.281s0.022,0.259,0.022,0.435c0,0.164-0.008,0.303-0.022,0.417
	s-0.036,0.207-0.065,0.277s-0.064,0.122-0.105,0.154s-0.088,0.048-0.141,0.048h-4.061v2.777h3.437c0.053,0,0.102,0.016,0.145,0.048
	c0.045,0.032,0.081,0.082,0.11,0.149s0.051,0.158,0.065,0.272s0.022,0.253,0.022,0.417c0,0.17-0.008,0.311-0.022,0.422
	s-0.036,0.201-0.065,0.268s-0.065,0.116-0.11,0.145c-0.043,0.029-0.092,0.044-0.145,0.044h-3.437v3.208h4.096
	c0.053,0,0.101,0.016,0.146,0.048c0.043,0.032,0.08,0.083,0.109,0.154s0.051,0.163,0.066,0.277c0.014,0.114,0.021,0.256,0.021,0.426
	s-0.008,0.312-0.021,0.426c-0.016,0.114-0.037,0.207-0.066,0.277s-0.066,0.122-0.109,0.154c-0.045,0.032-0.093,0.048-0.146,0.048
	h-5.713C33.292,18.057,33.129,18,32.998,17.885z M27.08,29.527c-0.029-0.037-0.044-0.08-0.044-0.13v-8.019
	c0-0.201,0.052-0.345,0.153-0.434c0.104-0.089,0.229-0.133,0.38-0.133h4.163c0.041,0,0.077,0.013,0.109,0.038
	s0.061,0.066,0.086,0.123c0.024,0.057,0.043,0.133,0.055,0.229c0.011,0.096,0.017,0.212,0.017,0.349s-0.006,0.252-0.017,0.345
	c-0.012,0.093-0.03,0.167-0.055,0.222c-0.025,0.055-0.054,0.096-0.086,0.123s-0.068,0.041-0.109,0.041h-2.892v2.379h2.714
	c0.041,0,0.077,0.011,0.109,0.034s0.061,0.062,0.086,0.116c0.024,0.055,0.043,0.127,0.055,0.219
	c0.011,0.091,0.017,0.205,0.017,0.342s-0.006,0.25-0.017,0.342c-0.012,0.091-0.03,0.167-0.055,0.226
	c-0.025,0.059-0.054,0.102-0.086,0.126s-0.068,0.038-0.109,0.038h-2.714v3.295c0,0.05-0.014,0.093-0.041,0.13
	s-0.076,0.067-0.147,0.092c-0.07,0.025-0.162,0.044-0.276,0.058s-0.26,0.021-0.438,0.021c-0.173,0-0.317-0.007-0.435-0.021
	c-0.115-0.014-0.208-0.033-0.276-0.058S27.11,29.564,27.08,29.527z M39.342,21.454v7.957c0,0.045,0.014,0.086,0.041,0.123
	s0.075,0.066,0.144,0.089s0.16,0.041,0.277,0.055c0.115,0.014,0.261,0.021,0.434,0.021c0.178,0,0.323-0.007,0.438-0.021
	s0.205-0.032,0.273-0.055s0.117-0.052,0.146-0.089c0.03-0.037,0.045-0.078,0.045-0.123v-2.823h0.738c0.583,0,1.09-0.068,1.521-0.205
	c0.43-0.137,0.794-0.336,1.09-0.598s0.521-0.584,0.677-0.967s0.232-0.823,0.232-1.319c0-0.36-0.05-0.685-0.15-0.974
	s-0.246-0.542-0.438-0.759s-0.423-0.396-0.694-0.537c-0.271-0.141-0.538-0.238-0.803-0.291s-0.491-0.086-0.68-0.103
	c-0.189-0.016-0.389-0.024-0.599-0.024H39.95c-0.183,0-0.329,0.054-0.441,0.161C39.397,21.079,39.342,21.239,39.342,21.454z
	 M41.14,22.199h0.766c0.187,0,0.368,0.013,0.543,0.038c0.176,0.025,0.344,0.085,0.503,0.181s0.294,0.244,0.403,0.444
	s0.164,0.456,0.164,0.766c0,0.228-0.032,0.438-0.096,0.632s-0.157,0.36-0.28,0.499s-0.281,0.247-0.476,0.325
	c-0.193,0.078-0.434,0.116-0.721,0.116H41.14V22.199z M22.589,35.708c-0.008-0.067-0.012-0.147-0.012-0.242
	c0-0.098,0.004-0.181,0.012-0.249c0.009-0.068,0.021-0.123,0.037-0.164s0.036-0.07,0.059-0.088s0.051-0.027,0.083-0.027h4.453
	c0.029,0,0.056,0.009,0.081,0.027c0.023,0.018,0.044,0.047,0.061,0.088s0.028,0.095,0.037,0.164
	c0.008,0.068,0.012,0.151,0.012,0.249c0,0.094-0.004,0.175-0.012,0.242c-0.009,0.067-0.021,0.121-0.037,0.161
	s-0.037,0.071-0.061,0.09c-0.025,0.02-0.052,0.029-0.081,0.029h-1.582v5.093c0,0.033-0.011,0.062-0.032,0.088
	c-0.021,0.026-0.056,0.047-0.104,0.063s-0.114,0.029-0.198,0.039c-0.082,0.01-0.186,0.015-0.31,0.015s-0.228-0.005-0.31-0.015
	c-0.084-0.01-0.149-0.023-0.198-0.039c-0.049-0.016-0.084-0.038-0.104-0.063c-0.021-0.026-0.032-0.055-0.032-0.088v-5.093h-1.582
	c-0.032,0-0.061-0.01-0.083-0.029s-0.042-0.05-0.059-0.09S22.598,35.775,22.589,35.708z M38.974,38.025
	c0-0.547-0.063-1.021-0.188-1.423c-0.125-0.402-0.311-0.735-0.557-0.999c-0.245-0.264-0.551-0.459-0.918-0.586
	c-0.365-0.127-0.788-0.19-1.267-0.19c-0.501,0-0.941,0.077-1.321,0.229c-0.379,0.153-0.697,0.373-0.954,0.659
	s-0.451,0.634-0.581,1.042c-0.13,0.409-0.195,0.868-0.195,1.379c0,0.557,0.061,1.039,0.184,1.445
	c0.121,0.407,0.305,0.742,0.549,1.006s0.549,0.46,0.916,0.588c0.365,0.128,0.795,0.193,1.286,0.193c0.498,0,0.937-0.076,1.315-0.227
	c0.38-0.151,0.698-0.371,0.955-0.659s0.451-0.639,0.581-1.052S38.974,38.549,38.974,38.025z M37.545,38.95
	c-0.053,0.269-0.146,0.504-0.275,0.706s-0.301,0.361-0.513,0.479s-0.476,0.176-0.791,0.176s-0.578-0.051-0.786-0.154
	s-0.374-0.251-0.498-0.447s-0.212-0.431-0.264-0.706s-0.078-0.585-0.078-0.93c0-0.296,0.027-0.577,0.08-0.842
	c0.055-0.265,0.146-0.497,0.276-0.696s0.301-0.357,0.513-0.476s0.476-0.178,0.791-0.178c0.312,0,0.573,0.053,0.781,0.159
	s0.375,0.255,0.5,0.449c0.126,0.194,0.215,0.426,0.267,0.698s0.078,0.574,0.078,0.906C37.626,38.396,37.6,38.681,37.545,38.95z
	 M45.149,34.939h3.491c0.134,0,0.231,0.034,0.296,0.103c0.063,0.068,0.095,0.165,0.095,0.288v0.239c0,0.088-0.004,0.164-0.013,0.227
	c-0.008,0.063-0.022,0.125-0.043,0.186c-0.021,0.06-0.05,0.122-0.086,0.186s-0.081,0.139-0.137,0.227l-2.412,3.833h2.642
	c0.062,0,0.109,0.039,0.142,0.117s0.049,0.213,0.049,0.405c0,0.094-0.004,0.174-0.012,0.239c-0.009,0.065-0.021,0.118-0.037,0.159
	s-0.037,0.069-0.061,0.085c-0.025,0.016-0.052,0.024-0.081,0.024h-3.726c-0.13,0-0.23-0.038-0.301-0.112
	c-0.069-0.075-0.104-0.184-0.104-0.327v-0.215c0-0.065,0.004-0.125,0.013-0.178c0.008-0.054,0.021-0.108,0.041-0.164
	s0.048-0.116,0.086-0.181c0.037-0.065,0.083-0.143,0.139-0.234l2.451-3.887h-2.432c-0.039,0-0.072-0.009-0.1-0.027
	c-0.028-0.018-0.051-0.046-0.068-0.085c-0.019-0.039-0.031-0.091-0.039-0.156c-0.009-0.065-0.013-0.143-0.013-0.234
	c0-0.098,0.004-0.18,0.013-0.247c0.008-0.067,0.021-0.121,0.039-0.161c0.018-0.041,0.04-0.069,0.068-0.085
	C45.077,34.947,45.11,34.939,45.149,34.939z M19.82,50.347c-0.059-0.051-0.088-0.133-0.088-0.248v-4.59
	c0-0.026,0.009-0.049,0.025-0.07s0.045-0.038,0.084-0.051s0.092-0.023,0.158-0.031s0.149-0.012,0.248-0.012
	c0.102,0,0.185,0.004,0.25,0.012s0.117,0.018,0.156,0.031s0.067,0.03,0.084,0.051s0.025,0.044,0.025,0.07v4.066h1.59
	c0.026,0,0.049,0.007,0.068,0.021s0.036,0.038,0.049,0.07s0.022,0.076,0.029,0.129s0.01,0.119,0.01,0.197s-0.003,0.144-0.01,0.197
	s-0.017,0.098-0.029,0.133s-0.029,0.061-0.049,0.076s-0.042,0.023-0.068,0.023h-2.316C19.951,50.424,19.879,50.398,19.82,50.347z
	 M31.443,45.607c-0.155-0.081-0.308-0.136-0.459-0.166s-0.28-0.049-0.389-0.059s-0.222-0.014-0.342-0.014h-1.191
	c-0.104,0-0.188,0.031-0.252,0.092s-0.096,0.153-0.096,0.275v4.547c0,0.026,0.008,0.049,0.023,0.07s0.043,0.038,0.082,0.051
	s0.092,0.023,0.158,0.031s0.149,0.012,0.248,0.012c0.102,0,0.185-0.004,0.25-0.012s0.117-0.018,0.156-0.031s0.067-0.03,0.084-0.051
	s0.025-0.044,0.025-0.07V48.67h0.422c0.333,0,0.623-0.039,0.869-0.117s0.454-0.192,0.623-0.342s0.298-0.334,0.387-0.553
	s0.133-0.47,0.133-0.754c0-0.206-0.028-0.391-0.086-0.557s-0.141-0.31-0.25-0.434S31.599,45.688,31.443,45.607z M31.047,47.34
	c-0.036,0.111-0.09,0.206-0.16,0.285s-0.161,0.141-0.271,0.186s-0.248,0.066-0.412,0.066h-0.461v-1.715h0.438
	c0.106,0,0.21,0.007,0.311,0.021s0.196,0.049,0.287,0.104s0.168,0.139,0.23,0.254s0.094,0.26,0.094,0.438
	C31.102,47.109,31.083,47.229,31.047,47.34z M41.56,49.832c0.007,0.051,0.01,0.114,0.01,0.189s-0.003,0.139-0.01,0.189
	s-0.017,0.092-0.029,0.123s-0.029,0.054-0.049,0.068s-0.041,0.021-0.064,0.021h-2.539c-0.086,0-0.158-0.025-0.217-0.076
	s-0.088-0.133-0.088-0.248v-4.406c0-0.115,0.029-0.197,0.088-0.248s0.131-0.076,0.217-0.076h2.523c0.023,0,0.044,0.006,0.063,0.02
	s0.034,0.036,0.047,0.068s0.022,0.074,0.029,0.125s0.01,0.115,0.01,0.193c0,0.073-0.003,0.135-0.01,0.186s-0.017,0.092-0.029,0.123
	s-0.028,0.054-0.047,0.068s-0.039,0.021-0.063,0.021h-1.805v1.234h1.527c0.023,0,0.045,0.007,0.064,0.021s0.036,0.037,0.049,0.066
	s0.022,0.07,0.029,0.121s0.01,0.113,0.01,0.186c0,0.076-0.003,0.138-0.01,0.188s-0.017,0.089-0.029,0.119s-0.029,0.051-0.049,0.064
	s-0.041,0.02-0.064,0.02h-1.527v1.426h1.82c0.023,0,0.045,0.007,0.064,0.021s0.036,0.037,0.049,0.068S41.553,49.781,41.56,49.832z
	 M48.163,45.445c-0.059,0.051-0.088,0.133-0.088,0.248v4.406c0,0.115,0.029,0.197,0.088,0.248s0.131,0.076,0.217,0.076h1.207
	c0.448,0,0.834-0.049,1.158-0.146s0.6-0.25,0.826-0.459s0.4-0.477,0.521-0.807s0.182-0.726,0.182-1.189
	c0-0.401-0.056-0.754-0.168-1.059s-0.275-0.561-0.49-0.768s-0.479-0.363-0.793-0.469s-0.696-0.158-1.146-0.158H48.38
	C48.294,45.369,48.222,45.394,48.163,45.445z M49.099,46.174h0.52c0.315,0,0.569,0.042,0.764,0.127
	c0.194,0.084,0.353,0.203,0.477,0.354s0.214,0.33,0.27,0.535s0.084,0.428,0.084,0.668c0,0.292-0.032,0.547-0.096,0.766
	s-0.16,0.402-0.289,0.549s-0.29,0.257-0.482,0.33s-0.43,0.109-0.711,0.109h-0.535V46.174z M18.579,58.747
	c0.02,0.006,0.046,0.012,0.079,0.016s0.074,0.006,0.124,0.006c0.051,0,0.093-0.002,0.125-0.006s0.059-0.009,0.078-0.016
	s0.033-0.015,0.042-0.025s0.013-0.022,0.013-0.035V57.88h0.211c0.167,0,0.312-0.02,0.435-0.059c0.123-0.039,0.227-0.096,0.312-0.171
	s0.149-0.167,0.193-0.276s0.066-0.235,0.066-0.377c0-0.103-0.015-0.196-0.043-0.278s-0.07-0.155-0.125-0.217
	s-0.121-0.113-0.198-0.153s-0.154-0.068-0.229-0.083s-0.141-0.025-0.194-0.029s-0.111-0.007-0.171-0.007H18.7
	c-0.052,0-0.094,0.015-0.126,0.046s-0.048,0.077-0.048,0.138v2.273c0,0.013,0.004,0.025,0.012,0.035S18.56,58.741,18.579,58.747z
	 M19.04,56.626h0.219c0.054,0,0.105,0.003,0.155,0.011s0.098,0.024,0.144,0.052s0.084,0.07,0.115,0.127s0.047,0.13,0.047,0.219
	c0,0.065-0.009,0.125-0.027,0.181s-0.045,0.103-0.08,0.143s-0.08,0.071-0.136,0.093s-0.124,0.033-0.206,0.033h-0.23V56.626z
	 M26.708,58.461c0.003,0.025,0.005,0.057,0.005,0.095s-0.002,0.069-0.005,0.095s-0.008,0.046-0.015,0.062s-0.015,0.027-0.024,0.034
	s-0.021,0.011-0.032,0.011h-1.27c-0.043,0-0.079-0.013-0.108-0.038s-0.044-0.067-0.044-0.124v-2.203
	c0-0.057,0.015-0.099,0.044-0.124s0.065-0.038,0.108-0.038h1.262c0.012,0,0.022,0.003,0.031,0.01s0.017,0.018,0.023,0.034
	s0.012,0.037,0.015,0.063s0.005,0.058,0.005,0.097c0,0.037-0.002,0.067-0.005,0.093s-0.008,0.046-0.015,0.062
	s-0.015,0.027-0.023,0.034s-0.02,0.011-0.031,0.011h-0.902v0.617h0.764c0.012,0,0.022,0.003,0.032,0.011s0.018,0.018,0.024,0.033
	s0.012,0.035,0.015,0.061s0.005,0.056,0.005,0.093c0,0.038-0.002,0.069-0.005,0.094s-0.008,0.044-0.015,0.06
	s-0.015,0.026-0.024,0.032s-0.021,0.01-0.032,0.01h-0.764v0.713h0.91c0.012,0,0.022,0.003,0.032,0.011s0.018,0.019,0.024,0.034
	S26.705,58.436,26.708,58.461z M31.873,56.534c0.103-0.113,0.227-0.199,0.37-0.258s0.303-0.088,0.476-0.088
	c0.07,0,0.138,0.006,0.203,0.018s0.125,0.027,0.181,0.046s0.105,0.041,0.149,0.065s0.075,0.046,0.093,0.063s0.029,0.032,0.036,0.044
	s0.012,0.027,0.016,0.045s0.007,0.04,0.009,0.064s0.003,0.055,0.003,0.092c0,0.039-0.001,0.072-0.004,0.1s-0.007,0.049-0.014,0.066
	s-0.015,0.029-0.023,0.037s-0.02,0.012-0.031,0.012c-0.02,0-0.044-0.011-0.074-0.034s-0.068-0.048-0.116-0.076
	s-0.104-0.053-0.17-0.076s-0.145-0.034-0.235-0.034c-0.101,0-0.189,0.021-0.269,0.062s-0.146,0.1-0.201,0.176
	s-0.098,0.168-0.126,0.276s-0.043,0.23-0.043,0.365c0,0.148,0.016,0.277,0.046,0.386s0.074,0.198,0.131,0.269
	s0.125,0.123,0.205,0.157s0.17,0.052,0.271,0.052c0.091,0,0.17-0.011,0.236-0.032s0.123-0.045,0.171-0.071s0.087-0.049,0.117-0.07
	s0.055-0.031,0.071-0.031c0.013,0,0.023,0.002,0.031,0.008s0.015,0.016,0.02,0.031s0.009,0.038,0.012,0.065s0.004,0.065,0.004,0.112
	c0,0.033-0.001,0.06-0.003,0.083s-0.005,0.042-0.009,0.059s-0.009,0.03-0.016,0.042s-0.017,0.025-0.031,0.04
	s-0.042,0.034-0.083,0.058s-0.091,0.046-0.15,0.067s-0.127,0.04-0.203,0.054s-0.158,0.021-0.247,0.021
	c-0.173,0-0.329-0.027-0.469-0.08s-0.258-0.133-0.355-0.239s-0.173-0.239-0.225-0.397s-0.078-0.344-0.078-0.555
	c0-0.215,0.028-0.406,0.086-0.572S31.771,56.648,31.873,56.534z M39.838,58.461c0.003,0.025,0.005,0.057,0.005,0.095
	s-0.002,0.069-0.005,0.095s-0.008,0.046-0.015,0.062s-0.015,0.027-0.024,0.034s-0.021,0.011-0.032,0.011h-1.27
	c-0.043,0-0.079-0.013-0.108-0.038s-0.044-0.067-0.044-0.124v-2.203c0-0.057,0.015-0.099,0.044-0.124s0.065-0.038,0.108-0.038h1.262
	c0.012,0,0.022,0.003,0.031,0.01s0.017,0.018,0.023,0.034s0.012,0.037,0.015,0.063s0.005,0.058,0.005,0.097
	c0,0.037-0.002,0.067-0.005,0.093s-0.008,0.046-0.015,0.062s-0.015,0.027-0.023,0.034s-0.02,0.011-0.031,0.011h-0.902v0.617h0.764
	c0.012,0,0.022,0.003,0.032,0.011s0.018,0.018,0.024,0.033s0.012,0.035,0.015,0.061s0.005,0.056,0.005,0.093
	c0,0.038-0.002,0.069-0.005,0.094s-0.008,0.044-0.015,0.06s-0.015,0.026-0.024,0.032s-0.021,0.01-0.032,0.01h-0.764v0.713h0.91
	c0.012,0,0.022,0.003,0.032,0.011s0.018,0.019,0.024,0.034S39.835,58.436,39.838,58.461z M46.147,57.741h-0.775v0.941
	c0,0.014-0.004,0.027-0.012,0.037s-0.021,0.019-0.042,0.026s-0.047,0.013-0.079,0.017s-0.074,0.006-0.125,0.006
	c-0.05,0-0.091-0.002-0.124-0.006s-0.06-0.009-0.079-0.017s-0.033-0.016-0.042-0.026s-0.013-0.023-0.013-0.037v-2.291
	c0-0.057,0.015-0.099,0.044-0.124s0.065-0.038,0.108-0.038h1.189c0.012,0,0.022,0.003,0.031,0.011s0.018,0.019,0.024,0.035
	s0.013,0.038,0.016,0.065s0.005,0.061,0.005,0.1s-0.002,0.072-0.005,0.099s-0.009,0.048-0.016,0.063s-0.016,0.027-0.024,0.035
	s-0.02,0.012-0.031,0.012h-0.826v0.68h0.775c0.012,0,0.022,0.003,0.031,0.01c0.009,0.006,0.018,0.018,0.024,0.033
	s0.013,0.037,0.016,0.063s0.005,0.059,0.005,0.098s-0.002,0.072-0.005,0.098s-0.009,0.047-0.016,0.064s-0.016,0.029-0.024,0.036
	C46.17,57.738,46.159,57.741,46.147,57.741z M51.404,56.23c-0.043,0-0.079,0.013-0.108,0.038s-0.044,0.067-0.044,0.124v2.203
	c0,0.057,0.015,0.099,0.044,0.124s0.065,0.038,0.108,0.038h0.604c0.224,0,0.417-0.024,0.579-0.073s0.3-0.125,0.413-0.229
	s0.2-0.239,0.261-0.403s0.091-0.363,0.091-0.595c0-0.201-0.028-0.377-0.084-0.529s-0.138-0.28-0.245-0.384s-0.239-0.182-0.396-0.234
	s-0.348-0.079-0.573-0.079H51.404z M52.644,56.872c0.062,0.076,0.106,0.165,0.135,0.268s0.042,0.214,0.042,0.334
	c0,0.146-0.016,0.273-0.048,0.383s-0.08,0.201-0.145,0.274s-0.145,0.128-0.241,0.165s-0.215,0.055-0.355,0.055h-0.268v-1.719h0.26
	c0.157,0,0.285,0.021,0.382,0.063S52.582,56.797,52.644,56.872z M17.627,65.046c0.019,0.002,0.043,0.003,0.074,0.003
	c0.029,0,0.053-0.001,0.071-0.002c0.019-0.001,0.032-0.004,0.042-0.007c0.01-0.004,0.018-0.009,0.021-0.016
	c0.005-0.006,0.008-0.015,0.011-0.024l0.084-0.26h0.499l0.089,0.267c0.003,0.009,0.006,0.016,0.01,0.022
	c0.005,0.005,0.012,0.01,0.021,0.013c0.011,0.003,0.025,0.005,0.045,0.006c0.02,0.001,0.047,0.002,0.082,0.002
	c0.033,0,0.06-0.001,0.078-0.003c0.02-0.001,0.033-0.006,0.04-0.013c0.008-0.007,0.011-0.018,0.009-0.032s-0.008-0.034-0.016-0.059
	l-0.41-1.176c-0.004-0.013-0.009-0.023-0.015-0.031c-0.006-0.007-0.016-0.013-0.029-0.017c-0.013-0.004-0.031-0.006-0.056-0.007
	c-0.023-0.001-0.056-0.001-0.097-0.001c-0.034,0-0.063,0-0.084,0.001c-0.021,0.001-0.037,0.003-0.05,0.007
	c-0.012,0.004-0.021,0.009-0.025,0.016c-0.006,0.007-0.011,0.017-0.015,0.028l-0.409,1.177c-0.008,0.024-0.014,0.043-0.016,0.058
	c-0.002,0.014,0.001,0.025,0.008,0.033S17.609,65.044,17.627,65.046z M18.178,63.969L18.178,63.969l0.188,0.564H17.99L18.178,63.969
	z M25.654,64.428c-0.023-0.027-0.052-0.049-0.083-0.066c-0.032-0.017-0.066-0.029-0.104-0.036c0.029-0.011,0.056-0.025,0.078-0.043
	c0.023-0.018,0.043-0.038,0.059-0.062s0.027-0.049,0.035-0.078c0.009-0.028,0.013-0.059,0.013-0.09c0-0.058-0.01-0.107-0.03-0.15
	s-0.051-0.078-0.089-0.105c-0.039-0.028-0.086-0.048-0.143-0.062s-0.126-0.021-0.207-0.021H24.85c-0.022,0-0.042,0.006-0.057,0.02
	c-0.016,0.013-0.023,0.035-0.023,0.065v1.157c0,0.03,0.008,0.052,0.023,0.065c0.015,0.013,0.034,0.02,0.057,0.02h0.353
	c0.054,0,0.102-0.003,0.146-0.01c0.043-0.006,0.084-0.017,0.122-0.03s0.073-0.031,0.105-0.052c0.031-0.021,0.059-0.046,0.082-0.076
	c0.022-0.03,0.041-0.063,0.054-0.102c0.013-0.039,0.02-0.081,0.02-0.128c0-0.045-0.007-0.085-0.021-0.122
	C25.696,64.487,25.678,64.455,25.654,64.428z M25.034,63.918h0.137c0.041,0,0.074,0.004,0.1,0.011
	c0.025,0.008,0.046,0.019,0.062,0.033c0.017,0.014,0.029,0.031,0.037,0.053c0.009,0.021,0.013,0.045,0.013,0.072
	c0,0.024-0.004,0.046-0.012,0.068c-0.007,0.021-0.019,0.041-0.034,0.057s-0.034,0.029-0.058,0.038
	c-0.023,0.009-0.055,0.014-0.094,0.014h-0.15V63.918z M25.435,64.733c-0.011,0.023-0.025,0.042-0.044,0.057
	c-0.019,0.016-0.041,0.027-0.066,0.035c-0.026,0.008-0.058,0.012-0.096,0.012h-0.194v-0.377h0.16c0.049,0,0.089,0.004,0.12,0.013
	c0.03,0.009,0.056,0.021,0.075,0.038c0.021,0.017,0.035,0.037,0.045,0.061c0.011,0.024,0.016,0.052,0.016,0.083
	C25.45,64.683,25.445,64.71,25.435,64.733z M32.772,63.734c0.004,0.006,0.007,0.012,0.007,0.019v1.253
	c0,0.007-0.003,0.013-0.007,0.019c-0.005,0.005-0.012,0.01-0.022,0.014c-0.01,0.003-0.023,0.006-0.041,0.008
	c-0.017,0.002-0.038,0.003-0.064,0.003s-0.049-0.001-0.066-0.003s-0.031-0.004-0.041-0.008s-0.017-0.008-0.021-0.014
	c-0.004-0.005-0.007-0.012-0.007-0.019v-0.536h-0.496v0.536c0,0.007-0.002,0.013-0.006,0.019s-0.012,0.01-0.021,0.014
	c-0.011,0.003-0.024,0.006-0.041,0.008c-0.018,0.002-0.039,0.003-0.065,0.003s-0.048-0.001-0.065-0.003s-0.031-0.004-0.042-0.008
	c-0.01-0.003-0.018-0.008-0.021-0.014c-0.005-0.005-0.007-0.012-0.007-0.019v-1.253c0-0.007,0.002-0.013,0.007-0.019
	c0.004-0.005,0.012-0.01,0.021-0.013c0.011-0.003,0.024-0.006,0.042-0.008c0.018-0.002,0.039-0.003,0.065-0.003
	s0.048,0.001,0.065,0.003c0.017,0.002,0.03,0.005,0.041,0.008c0.01,0.003,0.018,0.008,0.021,0.013
	c0.004,0.006,0.006,0.012,0.006,0.019v0.487h0.496v-0.487c0-0.007,0.003-0.013,0.007-0.019c0.005-0.005,0.012-0.01,0.021-0.013
	s0.023-0.006,0.041-0.008c0.018-0.002,0.04-0.003,0.066-0.003s0.048,0.001,0.064,0.003c0.018,0.002,0.031,0.005,0.041,0.008
	C32.761,63.724,32.768,63.729,32.772,63.734z M39.781,63.726c0.008,0.007,0.01,0.018,0.006,0.032
	c-0.004,0.014-0.012,0.034-0.024,0.058l-0.363,0.723v0.466c0,0.007-0.002,0.013-0.007,0.019c-0.004,0.005-0.012,0.01-0.021,0.014
	c-0.011,0.003-0.024,0.006-0.042,0.008s-0.039,0.003-0.064,0.003c-0.027,0-0.049-0.001-0.066-0.003
	c-0.017-0.002-0.03-0.004-0.041-0.008s-0.019-0.008-0.022-0.014s-0.006-0.012-0.006-0.019v-0.466l-0.363-0.723
	c-0.013-0.025-0.021-0.045-0.024-0.059c-0.004-0.014-0.002-0.025,0.006-0.032c0.008-0.007,0.022-0.012,0.044-0.014
	c0.021-0.001,0.05-0.002,0.088-0.002c0.031,0,0.057,0,0.075,0.002s0.033,0.004,0.045,0.008c0.011,0.004,0.019,0.009,0.023,0.015
	c0.006,0.006,0.011,0.014,0.016,0.024l0.147,0.326c0.014,0.031,0.028,0.064,0.042,0.099c0.015,0.035,0.028,0.072,0.043,0.11h0.002
	c0.013-0.037,0.026-0.073,0.04-0.108c0.014-0.035,0.027-0.068,0.04-0.099l0.146-0.324c0.003-0.011,0.008-0.02,0.013-0.026
	c0.005-0.007,0.013-0.012,0.023-0.016c0.01-0.004,0.024-0.007,0.042-0.008s0.041-0.002,0.07-0.002c0.039,0,0.069,0.001,0.091,0.002
	C39.759,63.714,39.773,63.719,39.781,63.726z M46.828,63.734c0.004,0.006,0.006,0.012,0.006,0.019v0.796
	c0,0.081-0.012,0.154-0.036,0.218c-0.023,0.064-0.059,0.119-0.105,0.163s-0.104,0.078-0.172,0.102
	c-0.068,0.023-0.147,0.035-0.236,0.035c-0.083,0-0.158-0.01-0.225-0.031c-0.066-0.021-0.122-0.052-0.168-0.095
	c-0.046-0.042-0.081-0.095-0.105-0.158c-0.024-0.063-0.036-0.137-0.036-0.222v-0.807c0-0.007,0.002-0.013,0.006-0.019
	c0.005-0.005,0.012-0.01,0.022-0.013s0.024-0.006,0.041-0.008c0.018-0.002,0.039-0.003,0.066-0.003c0.025,0,0.047,0.001,0.064,0.003
	c0.017,0.002,0.03,0.005,0.041,0.008c0.01,0.003,0.018,0.008,0.021,0.013c0.005,0.006,0.007,0.012,0.007,0.019v0.784
	c0,0.052,0.007,0.098,0.02,0.137s0.031,0.071,0.056,0.096c0.024,0.025,0.054,0.044,0.088,0.057c0.033,0.013,0.071,0.019,0.113,0.019
	s0.08-0.007,0.113-0.02c0.033-0.013,0.062-0.032,0.085-0.057s0.041-0.056,0.054-0.092s0.02-0.078,0.02-0.125v-0.799
	c0-0.007,0.002-0.013,0.006-0.019c0.004-0.005,0.012-0.01,0.021-0.013c0.011-0.003,0.024-0.006,0.042-0.008
	c0.018-0.002,0.039-0.003,0.064-0.003c0.026,0,0.048,0.001,0.064,0.003c0.017,0.002,0.03,0.005,0.04,0.008
	C46.816,63.724,46.823,63.729,46.828,63.734z M53.019,63.879c-0.054,0.061-0.095,0.133-0.122,0.219s-0.041,0.182-0.041,0.29
	c0,0.117,0.013,0.218,0.038,0.304c0.026,0.085,0.064,0.156,0.115,0.211c0.052,0.056,0.116,0.097,0.192,0.124
	c0.077,0.027,0.167,0.041,0.271,0.041c0.104,0,0.196-0.016,0.276-0.047s0.146-0.078,0.2-0.139c0.055-0.061,0.095-0.134,0.122-0.221
	c0.027-0.087,0.041-0.186,0.041-0.295c0-0.115-0.013-0.214-0.039-0.299s-0.065-0.154-0.117-0.21
	c-0.052-0.055-0.116-0.096-0.192-0.123c-0.077-0.026-0.166-0.04-0.267-0.04c-0.105,0-0.197,0.016-0.277,0.048
	C53.14,63.773,53.072,63.819,53.019,63.879z M53.487,63.914c0.065,0,0.12,0.011,0.164,0.033c0.044,0.022,0.078,0.054,0.104,0.094
	c0.026,0.041,0.045,0.09,0.057,0.147c0.011,0.057,0.016,0.12,0.016,0.19c0,0.063-0.005,0.124-0.017,0.18
	c-0.011,0.056-0.03,0.105-0.058,0.148s-0.063,0.076-0.107,0.101c-0.045,0.024-0.101,0.037-0.167,0.037
	c-0.065,0-0.121-0.011-0.165-0.033c-0.043-0.021-0.078-0.053-0.104-0.094c-0.025-0.041-0.044-0.09-0.055-0.148
	c-0.012-0.058-0.017-0.123-0.017-0.195c0-0.063,0.006-0.121,0.017-0.177c0.012-0.056,0.03-0.104,0.058-0.146
	c0.027-0.042,0.063-0.075,0.108-0.1C53.365,63.926,53.421,63.914,53.487,63.914z"/>
</svg>