<?xml version="1.0" encoding="iso-8859-1"?>
<!-- Uploaded to: SVG Repo, www.svgrepo.com, Generator: SVG Repo Mixer Tools -->
<svg height="800px" width="800px" version="1.1" id="Layer_1" xmlns="http://www.w3.org/2000/svg" xmlns:xlink="http://www.w3.org/1999/xlink" 
	 viewBox="0 0 512 512" xml:space="preserve">
<polygon style="fill:#7c95bf;" points="166.4,499.2 166.4,345.6 12.8,345.6 12.8,166.4 166.4,166.4 166.4,12.8 345.6,12.8 
	345.6,166.4 499.2,166.4 499.2,345.6 345.6,345.6 345.6,499.2 "/>
<path style="fill:#573A32;" d="M486.4,153.6h-128v-128c0-14.14-11.46-25.6-25.6-25.6H179.2c-14.14,0-25.6,11.46-25.6,25.6v128h-128
	C11.46,153.6,0,165.06,0,179.2v153.6c0,14.14,11.46,25.6,25.6,25.6h128v128c0,14.14,11.46,25.6,25.6,25.6h153.6
	c14.14,0,25.6-11.46,25.6-25.6v-128h128c14.14,0,25.6-11.46,25.6-25.6V179.2C512,165.06,500.54,153.6,486.4,153.6z M486.4,332.8
	H332.8v153.6H179.2V332.8H25.6V179.2h153.6V25.6h153.6v153.6h153.6V332.8z"/>
</svg>