<?xml version="1.0" encoding="iso-8859-1"?>
<!-- Uploaded to: SVG Repo, www.svgrepo.com, Generator: SVG Repo Mixer Tools -->
<svg version="1.1" id="Layer_1" xmlns="http://www.w3.org/2000/svg" xmlns:xlink="http://www.w3.org/1999/xlink" 
	 viewBox="0 0 512 512" xml:space="preserve">
<polyline style="fill:#BDCCD4;" points="36.049,127.478 51.722,127.478 51.722,503.641 36.049,503.641 "/>
<rect x="132.2" y="391.461" style="fill:#FF1D25;" width="328.505" height="112.17"/>
<polygon style="fill:#39B54A;" points="468.637,135.837 340.114,135.837 340.114,7.314 259.657,7.314 259.657,135.837 
	132.18,135.837 132.18,216.294 259.657,216.294 259.657,343.771 340.114,343.771 340.114,216.294 468.637,216.294 "/>
<path style="fill:#006837;" d="M323.396,328.098h-47.02V199.576H147.853v-47.02h128.522V22.988h47.02v129.567h129.567v47.02H323.396
	V328.098z M292.049,312.424h15.673V183.902H437.29v-15.673H307.722V38.661h-15.673v129.567H163.527v15.673h128.522V312.424z"/>
<path d="M443.559,487.967H147.853V407.51h295.706V487.967z M163.527,472.294h264.359v-49.11H163.527V472.294z"/>
<path style="fill:#FF777C;" d="M443.559,487.967H147.853V407.51h295.706V487.967z M163.527,472.294h264.359v-49.11H163.527V472.294z
	"/>
<path d="M348.473,351.086V223.608h127.478v-96.131H348.473V0h-96.131v127.478H124.865v40.751h-16.718v15.673h16.718v39.706h127.478
	v127.478h39.706v32.535H124.361v63.596h-16.214v15.673h16.214v48.576h344.18V383.621H307.722v-32.535H348.473z M452.867,495.793
	H140.034v-96.499h312.833V495.793z M268.016,335.412V207.935H140.539v-64.784h127.478V15.673H332.8v127.478h127.478v64.784H332.8
	v127.478H268.016z"/>
<polygon points="99.788,183.902 99.788,168.229 60.082,168.229 60.082,151.51 68.441,151.51 68.441,135.837 60.082,135.837 
	60.082,120.163 36.049,120.163 36.049,135.837 44.408,135.837 44.408,496.327 36.049,496.327 36.049,512 60.082,512 60.082,495.282 
	68.441,495.282 68.441,479.608 60.082,479.608 60.082,462.89 99.788,462.89 99.788,447.216 60.082,447.216 60.082,430.498 
	68.441,430.498 68.441,414.824 60.082,414.824 60.082,215.249 68.441,215.249 68.441,199.576 60.082,199.576 60.082,183.902 "/>
<g>
	<rect x="188.604" y="439.902" style="fill:#FFFFFF;" width="134.792" height="15.673"/>
	<rect x="340.114" y="439.902" style="fill:#FFFFFF;" width="15.673" height="15.673"/>
	<rect x="364.147" y="439.902" style="fill:#FFFFFF;" width="15.673" height="15.673"/>
	<rect x="388.18" y="439.902" style="fill:#FFFFFF;" width="15.673" height="15.673"/>
</g>
</svg>