<?xml version="1.0" encoding="utf-8"?><!-- Uploaded to: SVG Repo, www.svgrepo.com, Generator: SVG Repo Mixer Tools -->
<svg id="SvgjsSvg1033" width="256" height="256" xmlns="http://www.w3.org/2000/svg" version="1.1" xmlns:xlink="http://www.w3.org/1999/xlink" xmlns:svgjs="http://svgjs.com/svgjs">
    <defs id="SvgjsDefs1034"></defs>
    <g id="SvgjsG1035">
        <svg xmlns="http://www.w3.org/2000/svg" viewBox="0 0 66 66" width="256" height="256">
            <path fill="#59b9ff" d="m60.959 47.839-.227-.215.191-.191z" class="color59B9FF svgShape"></path>
            <circle cx="32.996" cy="32.998" r="26.675" fill="#e5e5e5" class="colorE5E5E5 svgShape"></circle>
            <path fill="#d3d3d3" d="M59.669 32.998c0 14.734-11.938 26.672-26.672 26.672-8.795 0-16.598-4.255-21.45-10.827a26.505 26.505 0 0 0 15.87 5.246c14.733 0 26.671-11.938 26.671-26.672a26.505 26.505 0 0 0-5.246-15.869C55.415 16.4 59.67 24.203 59.67 32.998z" class="colorD3D3D3 svgShape"></path>
            <path fill="#fbfbfb" d="M52.87 15.205a26.525 26.525 0 0 0-17.794-6.8c-14.733 0-26.671 11.938-26.671 26.672 0 6.835 2.569 13.073 6.8 17.793-5.45-4.887-8.88-11.973-8.88-19.872 0-14.734 11.938-26.671 26.672-26.671 7.899 0 14.985 3.429 19.872 8.878z" class="colorFBFBFB svgShape"></path>
            <path fill="#59b9ff" d="M48.033 27.247c0 7.933-15.037 25.867-15.037 25.867S17.96 35.18 17.96 27.247s6.732-14.365 15.037-14.365 15.037 6.431 15.037 14.365z" class="color59B9FF svgShape"></path>
            <path fill="#489cd5" d="M48.027 27.248c0 7.935-15.038 25.872-15.038 25.872s-1.567-1.873-3.69-4.675C31.741 45.448 43.893 30.23 43.893 23.1c0-2.816-.846-5.438-2.303-7.644 3.898 2.594 6.437 6.909 6.437 11.792z" class="color489CD5 svgShape"></path>
            <path fill="#59b9ff" d="M19.727 29.01c0 6.325 9.572 19.032 13.429 23.902l-.167.208S17.965 35.183 17.965 27.248c0-7.935 6.728-14.372 15.024-14.372 4.758 0 9.003 2.108 11.764 5.41-2.65-2.261-6.16-3.634-9.988-3.634-8.31 0-15.038 6.423-15.038 14.357z" class="color59B9FF svgShape"></path>
            <ellipse cx="32.996" cy="27.247" fill="#fbfbfb" rx="9.397" ry="8.977" class="colorFBFBFB svgShape"></ellipse>
            <path fill="#f0373c" d="M56.043 12.778c-.88-1-1.82-1.95-2.82-2.83a30.546 30.546 0 0 0-20.23-7.63c-16.91 0-30.67 13.77-30.67 30.68 0 7.73 2.88 14.82 7.63 20.22.87 1 1.82 1.95 2.82 2.83a30.54 30.54 0 0 0 20.22 7.63c16.92 0 30.68-13.77 30.68-30.68 0-7.73-2.88-14.82-7.63-20.22zm-49.72 20.22c0-14.73 11.94-26.68 26.67-26.68 6.64 0 12.72 2.43 17.39 6.47l-37.6 37.6a26.509 26.509 0 0 1-6.46-17.39zm26.67 26.68c-6.65 0-12.72-2.43-17.39-6.46l37.61-37.61a26.509 26.509 0 0 1 6.46 17.39c0 14.73-11.94 26.68-26.68 26.68z" class="colorF0373C svgShape"></path>
            <path d="M32.995 1.57c-17.33 0-31.42 14.1-31.42 31.43 0 17.25 14.02 31.43 31.42 31.43 17.33 0 31.43-14.1 31.43-31.43 0-17.25-14.01-31.43-31.43-31.43zm0 61.36c-16.53 0-29.92-13.47-29.92-29.93 0-16.51 13.42-29.93 29.92-29.93S62.925 16.49 62.925 33c0 16.5-13.43 29.93-29.93 29.93z" fill="#000000" class="color000 svgShape"></path>
            <path d="M53.775 15.12a.737.737 0 0 0-.54-.26c-.2-.02-.41.07-.55.22l-37.61 37.61c-.15.15-.23.35-.22.56.01.2.1.4.26.54a27.376 27.376 0 0 0 17.88 6.64c15.12 0 27.43-12.31 27.43-27.43 0-6.57-2.36-12.92-6.65-17.88zm-12.2 13.19c-.48 3.55-3.36 6.39-7.03 7.03l7.03-7.03zm-8.66 8.66h.08c5.6 0 10.15-4.36 10.15-9.72 0-.17 0-.34-.01-.5l3.52-3.52c.41 1.27.63 2.62.63 4.02 0 6.7-11.55 21.32-14.29 24.68a153.89 153.89 0 0 1-6.47-8.57l6.39-6.39zm.08 21.96c-5.94 0-11.69-2.04-16.28-5.76l8.74-8.74c3.42 4.91 6.68 8.82 6.97 9.17.14.17.35.26.57.26.22 0 .43-.09.58-.26.62-.75 15.21-18.24 15.21-26.35 0-1.82-.34-3.57-.96-5.19l5.34-5.34A25.862 25.862 0 0 1 58.925 33c0 14.3-11.63 25.93-25.93 25.93zm17.88-46.71a27.333 27.333 0 0 0-17.88-6.65c-15.12 0-27.42 12.3-27.42 27.43 0 6.56 2.36 12.91 6.64 17.88.14.16.33.25.54.26h.03c.2 0 .39-.08.53-.22l37.6-37.6c.14-.15.22-.35.22-.56-.01-.21-.1-.4-.26-.54zm-22.78 21.8c-2.27-1.49-3.75-3.97-3.75-6.77 0-4.54 3.88-8.23 8.65-8.23 2.79 0 5.28 1.27 6.87 3.23l-11.77 11.77zm12.83-12.83c-1.85-2.24-4.72-3.67-7.93-3.67-5.59 0-10.15 4.36-10.15 9.73 0 3.22 1.64 6.07 4.17 7.85l-3.57 3.57c-2.63-4.25-4.74-8.56-4.74-11.42 0-7.51 6.41-13.62 14.29-13.62 4.3 0 8.17 1.82 10.79 4.7l-2.86 2.86zm3.92-3.92c-2.89-3.15-7.13-5.14-11.85-5.14-8.7 0-15.79 6.78-15.79 15.12 0 3.23 2.32 7.95 5.15 12.51l-9.52 9.52A25.882 25.882 0 0 1 7.075 33c0-14.3 11.63-25.93 25.92-25.93 5.94 0 11.69 2.04 16.28 5.77l-4.43 4.43z" fill="#000000" class="color000 svgShape"></path>
        </svg>
    </g>
</svg>
