<?xml version="1.0" encoding="utf-8"?><!-- Uploaded to: SVG Repo, www.svgrepo.com, Generator: SVG Repo Mixer Tools -->
<svg id="SvgjsSvg1013" width="256" height="256" xmlns="http://www.w3.org/2000/svg" version="1.1" xmlns:xlink="http://www.w3.org/1999/xlink" xmlns:svgjs="http://svgjs.com/svgjs"><defs id="SvgjsDefs1014"></defs><g id="SvgjsG1015"><svg xmlns="http://www.w3.org/2000/svg" viewBox="0 0 128 128" width="256" height="256"><path d="M64,125.821C29.538,125.821,1.5,98.089,1.5,64S29.538,2.179,64,2.179,126.5,29.911,126.5,64,98.463,125.821,64,125.821ZM64,4.179C30.64,4.179,3.5,31.015,3.5,64S30.64,123.821,64,123.821,124.5,96.985,124.5,64,97.359,4.179,64,4.179Z" fill="#000000" class="color000 svgShape"></path><path d="M64,67.172a16.361,16.361,0,1,1,16.36-16.36A16.378,16.378,0,0,1,64,67.172Zm0-30.721A14.361,14.361,0,1,0,78.36,50.812,14.377,14.377,0,0,0,64,36.451Z" fill="#000000" class="color000 svgShape"></path><path d="M64,107.436a1,1,0,0,1-.8-.394c-1.227-1.609-30.054-39.6-30.054-56.23a30.849,30.849,0,0,1,61.7,0c0,16.631-28.827,54.621-30.054,56.23A1,1,0,0,1,64,107.436Zm0-85.472A28.881,28.881,0,0,0,35.151,50.812c0,14.469,24.122,47.605,28.849,53.957,4.727-6.352,28.849-39.488,28.849-53.957A28.881,28.881,0,0,0,64,21.964Z" fill="#000000" class="color000 svgShape"></path><path d="M107.114,108.373a1,1,0,0,1-.709-.3L20.179,21.329a1,1,0,0,1,1.419-1.41l86.225,86.749a1,1,0,0,1-.709,1.7Z" fill="#000000" class="color000 svgShape"></path></svg></g></svg>

