<?xml version="1.0" encoding="utf-8"?><!-- Uploaded to: SVG Repo, www.svgrepo.com, Generator: SVG Repo Mixer Tools -->
<svg id="SvgjsSvg1001" width="256" height="256" xmlns="http://www.w3.org/2000/svg" version="1.1" xmlns:xlink="http://www.w3.org/1999/xlink" xmlns:svgjs="http://svgjs.com/svgjs"><defs id="SvgjsDefs1002"></defs><g id="SvgjsG1008"><svg xmlns="http://www.w3.org/2000/svg" viewBox="0 0 64 64" width="256" height="256"><g data-name="Layer 81" fill="#000000" class="color000 svgShape"><path d="M18.8 9.78a21.6 21.6 0 0 1 35.45 16.58c0 4.12-1.47 9.62-4 15.09a.76.76 0 0 0 .36 1 .77.77 0 0 0 .32.07.75.75 0 0 0 .68-.43c2.69-5.75 4.17-11.33 4.17-15.73A23.09 23.09 0 0 0 17.84 8.63a.74.74 0 0 0-.09 1 .75.75 0 0 0 1.05.15Z" fill="#000000" class="color000 svgShape"></path><path d="M40.76 32.68a.82.82 0 0 0 .44.14.74.74 0 0 0 .61-.31A11.32 11.32 0 0 0 26 16.7a.75.75 0 0 0 .88 1.22 9.82 9.82 0 0 1 13.71 13.71.76.76 0 0 0 .17 1.05zM56 54.26l-19-19-13.73-13.69L9.1 7.4A.75.75 0 0 0 8 8.46l5.27 5.27a22.94 22.94 0 0 0-3.74 12.63c0 12 12.25 34.39 23.11 34.39 4.86 0 10.44-4.46 15.42-12.27l6.84 6.84a.77.77 0 0 0 .53.22.79.79 0 0 0 .53-.22.75.75 0 0 0 .04-1.06zM23.11 23.53 35 35.39a9.61 9.61 0 0 1-2.34.29 9.84 9.84 0 0 1-9.82-9.82 9.47 9.47 0 0 1 .27-2.33zm9.53 35.72C23.32 59.25 11 38.56 11 26.36a21.33 21.33 0 0 1 3.4-11.54l7.5 7.5a11.08 11.08 0 0 0-.58 3.54 11.34 11.34 0 0 0 11.32 11.32 11.47 11.47 0 0 0 3.55-.57L47 47.4c-4.7 7.42-10 11.85-14.36 11.85z" fill="#000000" class="color000 svgShape"></path></g></svg></g></svg>
