<?xml version="1.0" encoding="iso-8859-1"?>
<!-- Uploaded to: SVG Repo, www.svgrepo.com, Generator: SVG Repo Mixer Tools -->
<svg height="800px" width="800px" version="1.1" id="Layer_1" xmlns="http://www.w3.org/2000/svg" xmlns:xlink="http://www.w3.org/1999/xlink" 
	 viewBox="0 0 480 480" xml:space="preserve">
<path style="fill:#FFFFFF;" d="M472,280H8v-8c0-17.672,14.328-32,32-32h400c17.672,0,32,14.328,32,32V280z"/>
<path style="fill:#F7C76A;" d="M272,48h-64v-8c0-17.672,14.328-32,32-32l0,0c17.672,0,32,14.328,32,32V48z"/>
<polygon style="fill:#E88F97;" points="84,280 119.664,311 137.832,404.168 242.52,468.664 384,454 384,351.432 356.496,330.824 
	351.328,304.984 365.496,280 314.664,280 297.336,306.664 296.976,360.88 263.832,386 199.688,364.92 156.664,280 "/>
<path style="fill:#FFFFFF;" d="M464,456c0,8.84-7.16,16-16,16h-48c-8.84,0-16-7.16-16-16V344c0-8.84,7.16-16,16-16h48
	c8.84,0,16,7.16,16,16V456z"/>
<circle cx="431.248" cy="435.12" r="13.144"/>
<path style="fill:#F5B945;" d="M440,240H40V112c0-35.344,28.656-64,64-64h272c35.344,0,64,28.656,64,64V240z"/>
<path d="M448,232.808V112c0-39.696-32.304-72-72-72h-96c0-22.056-17.944-40-40-40s-40,17.944-40,40h-96c-39.696,0-72,32.304-72,72
	v120.808C13.768,236.528,0,252.688,0,272v8c0,4.416,3.584,8,8,8h73.008l31.336,27.232l17.64,90.464
	c0.424,2.192,1.752,4.112,3.656,5.28l104.688,64.496c1.264,0.776,2.72,1.184,4.192,1.184c0.272,0,0.552-0.016,0.824-0.04
	l133.744-13.864C380.032,472.688,389.128,480,400,480h48c13.232,0,24-10.768,24-24V344c0-13.232-10.768-24-24-24h-48
	c-10.576,0-19.472,6.92-22.664,16.44l-13.592-10.184l-3.992-19.912L370.16,288H472c4.416,0,8-3.584,8-8v-8
	C480,252.688,466.232,236.528,448,232.808z M392,454V351.432V344c0-4.408,3.592-8,8-8h48c4.408,0,8,3.592,8,8v112
	c0,4.408-3.592,8-8,8h-48c-4.408,0-8-3.592-8-8V454z M240,16c13.232,0,24,10.768,24,24h-48C216,26.768,226.768,16,240,16z M48,112
	c0-30.88,25.12-56,56-56h104h64h104c30.88,0,56,25.12,56,56v120H48V112z M343.488,306.552l5.168,25.84
	c0.384,1.928,1.472,3.656,3.048,4.832L376,355.432v91.352l-131.6,13.648L145.016,399.2l-17.496-89.728
	c-0.336-1.752-1.256-3.336-2.608-4.504L105.4,288h46.352l40.8,80.536c0.96,1.888,2.624,3.328,4.64,3.992l64.144,21.08
	c2.48,0.808,5.224,0.36,7.328-1.224l33.144-25.12c1.984-1.504,3.152-3.832,3.168-6.32l0.344-51.872L319.008,288h32.76l-7.392,13.04
	C343.424,302.712,343.104,304.664,343.488,306.552z M169.688,288h130.24l-9.304,14.312c-0.832,1.28-1.28,2.776-1.296,4.304
	l-0.336,50.272l-26.656,20.208L205.32,358.36L169.688,288z M365.504,272h-50.832h-158H84H16c0-13.232,10.768-24,24-24h400
	c13.232,0,24,10.768,24,24H365.504z"/>
<g>
	<path style="fill:#FFFFFF;" d="M152,120h-48c-4.416,0-8-3.584-8-8s3.584-8,8-8h48c4.416,0,8,3.584,8,8S156.416,120,152,120z"/>
	<path style="fill:#FFFFFF;" d="M192,120h-8c-4.416,0-8-3.584-8-8s3.584-8,8-8h8c4.416,0,8,3.584,8,8S196.416,120,192,120z"/>
</g>
</svg>