<?xml version="1.0" encoding="iso-8859-1"?>
<!-- Uploaded to: SVG Repo, www.svgrepo.com, Generator: SVG Repo Mixer Tools -->
<svg version="1.1" id="Layer_1" xmlns="http://www.w3.org/2000/svg" xmlns:xlink="http://www.w3.org/1999/xlink" 
	 viewBox="0 0 512 512" xml:space="preserve">
<path style="fill:#D84C4C;" d="M414.254,504.396H70.372V7.604h343.882c15.119,0,27.374,12.256,27.374,27.374v442.044
	C441.628,492.14,429.372,504.396,414.254,504.396z"/>
<rect x="70.372" y="7.604" style="fill:#9B3737;" width="63.397" height="496.792"/>
<circle style="fill:#F7B737;" cx="286.771" cy="196.922" r="78.219"/>
<g>
	<rect x="187.858" y="340.292" style="fill:#B23F3F;" width="198.849" height="46.55"/>
	<path style="fill:#B23F3F;" d="M133.774,442.047v62.349h285.155c12.536,0,22.699-12.256,22.699-27.374v-34.975H133.774z"/>
</g>
<path d="M414.254,0H70.372c-4.2,0-7.604,3.405-7.604,7.604v496.792c0,4.199,3.404,7.604,7.604,7.604h343.882
	c19.287,0,34.978-15.691,34.978-34.978V34.978C449.232,15.692,433.54,0,414.254,0z M77.976,15.208h48.194v481.584H77.976V15.208z
	 M434.024,477.022c0,10.901-8.869,19.77-19.77,19.77H141.378V15.208h272.876c10.901,0,19.77,8.869,19.77,19.77V477.022z"/>
<path d="M286.772,282.752c47.326,0,85.827-38.502,85.827-85.827c0-47.326-38.502-85.827-85.827-85.827s-85.827,38.502-85.827,85.827
	C200.943,244.249,239.446,282.752,286.772,282.752z M223.98,229.179c1.314,0.753,2.66,1.493,4.078,2.203
	c5.317,2.658,11.214,4.905,17.526,6.729c1.825,6.311,4.071,12.209,6.729,17.526c0.709,1.417,1.449,2.764,2.202,4.078
	C241.435,252.968,230.727,242.26,223.98,229.179z M241.823,173.012c-1.164,7.673-1.768,15.709-1.768,23.912
	c0,8.203,0.604,16.239,1.768,23.912c-16.067-6.214-25.672-15.342-25.672-23.912C216.151,188.354,225.757,179.226,241.823,173.012z
	 M357.391,196.924c0,8.57-9.605,17.698-25.672,23.912c1.164-7.673,1.768-15.709,1.768-23.912c0-8.203-0.604-16.239-1.768-23.912
	C347.786,179.226,357.391,188.354,357.391,196.924z M318.28,196.924c0,10.435-1.044,20.074-2.844,28.664
	c-6.462,1.354-13.519,2.279-21.06,2.655v-62.639c7.542,0.376,14.599,1.302,21.06,2.655C317.234,176.85,318.28,186.49,318.28,196.924
	z M262.86,241.872c5.284,0.801,10.743,1.332,16.308,1.588v21.665C273.092,261.336,267.25,253.222,262.86,241.872z M294.376,265.125
	v-21.664c5.565-0.255,11.024-0.787,16.308-1.588C306.293,253.222,300.452,261.336,294.376,265.125z M294.376,150.389v-21.665
	c6.076,3.789,11.918,11.903,16.308,23.253C305.398,151.175,299.941,150.644,294.376,150.389z M279.168,128.724v21.665
	c-5.565,0.255-11.024,0.787-16.308,1.588C267.25,140.627,273.091,132.512,279.168,128.724z M279.168,165.605v62.639
	c-7.542-0.376-14.599-1.302-21.06-2.655c-1.8-8.59-2.844-18.23-2.844-28.664c0-10.434,1.044-20.074,2.844-28.664
	C264.569,166.907,271.626,165.98,279.168,165.605z M319.027,259.715c0.753-1.314,1.493-2.66,2.202-4.078
	c2.658-5.317,4.905-11.214,6.729-17.526c6.311-1.825,12.209-4.071,17.526-6.729c1.417-0.709,2.765-1.449,4.078-2.203
	C342.815,242.26,332.108,252.968,319.027,259.715z M349.562,164.669c-1.314-0.753-2.66-1.493-4.079-2.203
	c-5.317-2.658-11.214-4.905-17.526-6.729c-1.825-6.311-4.071-12.209-6.73-17.527c-0.709-1.417-1.449-2.764-2.202-4.078
	C332.108,140.88,342.815,151.589,349.562,164.669z M254.516,134.133c-0.753,1.314-1.493,2.66-2.202,4.078
	c-2.658,5.318-4.905,11.215-6.73,17.527c-6.311,1.825-12.209,4.071-17.526,6.729c-1.418,0.709-2.765,1.449-4.079,2.203
	C230.727,151.589,241.435,140.88,254.516,134.133z"/>
<path d="M386.706,332.687h-198.85c-4.2,0-7.604,3.405-7.604,7.604v46.551c0,4.199,3.404,7.604,7.604,7.604h198.85
	c4.2,0,7.604-3.405,7.604-7.604v-46.551C394.31,336.092,390.906,332.687,386.706,332.687z M379.102,379.239H195.46v-31.344h183.642
	V379.239z"/>
</svg>