<?xml version="1.0" ?>
<!-- Uploaded to: SVG Repo, www.svgrepo.com, Generator: SVG Repo Mixer Tools -->
<svg width="800px" height="800px" viewBox="0 0 512 512" id="Layer_1" version="1.1" xml:space="preserve" xmlns="http://www.w3.org/2000/svg" xmlns:xlink="http://www.w3.org/1999/xlink">
<style type="text/css">
	.st0{fill:#4CC3F2;}
	.st1{fill:#CFF1FF;}
	.st2{fill:#0A557F;}
</style>
<g>
<path class="st0" d="M149.5,225h45v7.5h19.7c3.6,19.9,20.9,35,41.8,35c20.9,0,38.3-15.1,41.8-35h20.7V225h45v7.5h64.6l24.7,102.2   h-98.6v-7.5c-37.7,0-64.6-11.5-92.8-39.7l-5.3-5.3l-5.3,5.3c-28.2,28.2-55.1,39.7-92.8,39.7v7.5H59.2l24.7-102.2h65.6V225z"/>
<rect class="st1" height="28.5" width="55" x="263.5" y="33.5"/>
<path class="st1" d="M213.5,372.5v106h-43.9l27.7-141c21.3-5.7,39.9-16.7,58.8-34.3c18.8,17.6,37.4,28.6,58.8,34.3l27.7,141h-43.9   v-106H213.5z"/>
<path class="st2" d="M440.6,220.3L263.5,108.9V77h70V18.5h-85v90.4L71.4,220.3l-66,273.2h501.1L440.6,220.3z M263.5,33.5h55V62h-55   V33.5z M283.5,478.5h-55v-91h55V478.5z M298.5,478.5v-106h-85v106h-43.9l27.7-141c21.3-5.7,39.9-16.7,58.8-34.3   c18.8,17.6,37.4,28.6,58.8,34.3l27.7,141H298.5z M330.7,340.6c7.4,1,15.2,1.5,23.5,1.5v-15c-37.7,0-64.6-11.5-92.8-39.7l-5.3-5.3   l-5.3,5.3c-28.2,28.2-55.1,39.7-92.8,39.7v15c8.3,0,16-0.5,23.5-1.5l-27,137.9H24.5l59.4-246h65.6v-15H104l152-95.6l152,95.6h-44.5   v15h64.6l59.4,246H357.7L330.7,340.6z"/>
<path class="st2" d="M370.2,366.4v51h71.3v-51H370.2z M426.5,402.4h-41.3v-21h41.3V402.4z"/>
<path class="st2" d="M70.5,366.4v51h71.3v-51H70.5z M126.8,402.4H85.5v-21h41.3V402.4z"/>
<circle class="st1" cx="256" cy="225" r="27.5"/>
<path class="st2" d="M297.8,217.5c-3.6-19.9-20.9-35-41.8-35c-20.9,0-38.3,15.1-41.8,35h-19.7v15h19.7c3.6,19.9,20.9,35,41.8,35   c20.9,0,38.3-15.1,41.8-35h20.7v-15H297.8z M256,252.5c-15.2,0-27.5-12.3-27.5-27.5c0-15.2,12.3-27.5,27.5-27.5   c15.2,0,27.5,12.3,27.5,27.5C283.5,240.2,271.2,252.5,256,252.5z"/>
<rect class="st2" height="67.3" transform="matrix(0.5592 -0.829 0.829 0.5592 76.9052 397.1302)" width="15" x="404.4" y="92.6"/>
<rect class="st2" height="15" transform="matrix(0.5592 -0.829 0.829 0.5592 71.3942 449.5712)" width="15" x="451" y="150.1"/>
<rect class="st2" height="15" transform="matrix(0.829 -0.5592 0.5592 0.829 -53.4825 77.5622)" width="67.3" x="66.4" y="118.7"/>
<rect class="st2" height="15" transform="matrix(0.829 -0.5592 0.5592 0.829 -79.001 56.895)" width="15" x="46" y="150.1"/>
<rect class="st2" height="15" width="15" x="333.5" y="217.5"/>
<rect class="st2" height="15" width="41.3" x="370.2" y="327.2"/>
<rect class="st2" height="15" width="15" x="426.5" y="327.2"/>
<rect class="st2" height="15" width="41.3" x="100.5" y="327.2"/>
<rect class="st2" height="15" width="15" x="70.5" y="327.2"/>
<rect class="st2" height="15" width="15" x="164.5" y="217.5"/>
</g>
</svg>