<?xml version="1.0" encoding="utf-8"?>
<!-- Uploaded to: SVG Repo, www.svgrepo.com, Generator: SVG Repo Mixer Tools -->
<svg fill="#000000" height="800px" width="800px" version="1.1" id="_x31_" xmlns="http://www.w3.org/2000/svg" xmlns:xlink="http://www.w3.org/1999/xlink" 
	 viewBox="0 0 128 128" xml:space="preserve">
<g>
	<circle cx="62.2" cy="14.4" r="9.9"/>
	<path d="M81,62.4c-0.9-1-2.5-1.1-3.5-0.2l-6,5.2c0.1-0.2,0.2-0.5,0.3-0.7c1.6-6.8,2.5-14,2.5-21.3c0.1-0.5,0-1.7,0-1.9
		c0-8.3-6.1-15.1-13.9-16.5c0,0-1-0.1-1.2-0.1c-3.1,0-5.6,2.5-5.6,5.6c0,0.1,0,37.2,0,37.2c0,2.4,2,4.3,4.3,4.3c2.4,0,4.3-2,4.3-4.3
		V41.7c0-0.7,0.5-1.2,1.2-1.2c0.7,0,1.2,0.5,1.2,1.2v27.9c0,1.6-0.6,3.1-1.5,4.3c-1.2,1.5-3.1,2.5-5.3,2.5c-0.6,0-1.2-0.1-1.9-0.2
		v41.2c0,3.5,2.7,6.2,6.2,6.2c3.5,0,6.2-2.7,6.2-6.2V76.5c0.2-0.1,0.3-0.2,0.4-0.3l11.9-10.3C81.8,65,81.9,63.4,81,62.4z"/>
</g>
</svg>