<?xml version="1.0" encoding="iso-8859-1"?>
<!-- Uploaded to: SVG Repo, www.svgrepo.com, Generator: SVG Repo Mixer Tools -->
<svg fill="#000000" height="800px" width="800px" version="1.1" id="Layer_1" xmlns="http://www.w3.org/2000/svg" xmlns:xlink="http://www.w3.org/1999/xlink" 
	 viewBox="0 0 512.001 512.001" xml:space="preserve">
<g>
	<g>
		<path d="M271.608,320.931l-11.514-22.575h-50.858l19.359,37.955l-0.573,17.236c15.664-1.947,31.945,2.259,44.911,12.599
			l1.135-34.17C274.195,328.145,273.349,324.345,271.608,320.931z"/>
	</g>
</g>
<g>
	<g>
		<path d="M274.284,234.132c-6.319-3.063-53.365-25.866-59.693-28.932l-9.156-67.307l22.521,54.732l19.809,9.601l9.461-62.218
			c1.923-12.647-6.771-24.46-19.418-26.383l-52.017-7.91c-12.647-1.923-24.46,6.771-26.383,19.418l-18.01,118.437
			c7.815-3.137,16.119-5.307,24.761-6.365c-3.256-5.219-5.786-12.732-5.255-18.282l6.958-72.691l10.111,74.323
			c0.866,6.364,4.859,11.871,10.638,14.672l68.946,33.416c8.898,4.314,19.533,1.131,24.659-7.167
			C288.33,251.575,284.301,238.988,274.284,234.132z"/>
	</g>
</g>
<g>
	<g>
		<circle cx="234.533" cy="55.574" r="38.714"/>
	</g>
</g>
<g>
	<g>
		<path d="M207.861,335.296l-10.582-36.939h-18.996c-9.748,0-18.634,3.748-25.304,9.874l9.344,32.62l-4.285,12.246
			c13.889-0.172,27.824,4.415,39.107,13.784c1.763-1.464,3.597-2.798,5.48-4.028l4.841-13.836
			C209.014,344.594,209.152,339.801,207.861,335.296z"/>
	</g>
</g>
<g>
	<g>
		<path d="M190.154,255.034h-11.87c-44.533,0-80.765,36.231-80.765,80.765v19.247c8.37,2.21,16.165,6.218,22.914,11.833
			c0.606-0.504,1.222-0.987,1.843-1.461v-29.62c0-30.884,25.126-56.008,56.008-56.008h62.947L190.154,255.034z"/>
	</g>
</g>
<g>
	<g>
		<path d="M387.029,222.768l30.177-42.212c7.538-10.544,5.102-25.205-5.444-32.743c-10.545-7.538-25.205-5.103-32.743,5.444
			c-13.626,19.06-50.78,71.031-64.366,90.035c-2.564,3.586-3.946,7.647-4.276,11.741h-8.316c-0.411,4.128-1.544,8.254-3.456,12.199
			c-2.409,4.97-5.917,9.223-10.127,12.556h39.88c8.723,2.054,17.999-1.028,23.719-8.197l23.512,82.944
			c4.329-0.976,8.796-1.484,13.343-1.484c14.172,0,27.596,4.872,38.357,13.825c0.158-0.131,0.323-0.254,0.482-0.384L387.029,222.768
			z"/>
	</g>
</g>
<g>
	<g>
		<path d="M506.945,193.919h-23.571v0.001c-2.793,0-5.056,2.263-5.056,5.056v155.422v21.326
			c-13.623-4.599-29.474-1.638-40.604,9.491c-5.762,5.762-15.089,5.764-20.852,0c-15.402-15.402-40.462-15.401-55.863,0
			c-5.748,5.748-15.103,5.749-20.852,0c-15.401-15.401-40.462-15.402-55.863,0c-5.761,5.762-15.089,5.764-20.852,0
			c-15.402-15.402-40.463-15.4-55.863,0c-5.761,5.762-15.089,5.764-20.852,0c-15.401-15.401-40.461-15.401-55.863,0
			c-5.761,5.762-15.089,5.764-20.852,0c-7.46-7.46-17.381-11.57-27.931-11.57c-10.55,0-20.47,4.108-27.931,11.57
			c-5.552,5.552-14.573,5.844-20.46,0.355c0-4.638,0-156.473,0-186.595c0-2.792-2.263-5.056-5.055-5.056H5.055
			C2.262,193.92,0,196.183,0,198.975c0,43.281,0,250.26,0,279.326c0,9.301,7.54,16.841,16.841,16.841c23.163,0,453.944,0,478.318,0
			c9.301,0,16.841-7.54,16.841-16.841v-65.669v-37.33V198.975C512.001,196.182,509.738,193.919,506.945,193.919z M478.318,461.46
			H454.69l-8.402-29.64c-6.048,2.009-12.442,3.064-19,3.064c-11.275,0-22.072-3.094-31.435-8.864l10.046,35.44H253.387
			c9.535-2.411,16.74-10.865,17.083-21.187l0.182-5.483c-12.982-0.678-25.204-5.46-35.149-13.733
			c-3.107,2.585-6.442,4.818-9.947,6.704l-0.366,11.007c-0.36,10.829,6.948,20.123,17.034,22.69h-84.827
			c7.096-1.818,13.181-7.026,15.782-14.457l5.276-15.079c-7.139-2.328-13.801-5.986-19.667-10.866
			c-5.393,4.488-11.455,7.949-17.946,10.286c0,17.323,0,12.343,0,30.116h-18.568v-26.616c-8.773,0.265-17.101-1.31-24.756-4.465
			v31.081c-7.594,0-56.279,0-63.838,0c0-7.421,0-41.057,0-48.457c13.236,3.452,27.707-0.024,37.966-10.283
			c5.749-5.749,15.102-5.749,20.852,0c15.439,15.439,40.424,15.439,55.863,0c5.749-5.749,15.103-5.749,20.852,0
			c15.439,15.439,40.424,15.439,55.863,0c5.749-5.749,15.102-5.749,20.852,0c15.439,15.439,40.424,15.439,55.863,0
			c5.749-5.749,15.103-5.749,20.852,0c15.402,15.402,40.463,15.401,55.863,0c5.75-5.749,15.103-5.749,20.852,0
			c15.438,15.438,40.423,15.44,55.863,0c5.763-5.763,15.089-5.763,20.852,0c0.692,0.692,1.449,1.272,2.247,1.766
			C478.318,415.772,478.318,448.847,478.318,461.46z"/>
	</g>
</g>
</svg>