<?xml version="1.0" encoding="iso-8859-1"?>
<!-- Uploaded to: SVG Repo, www.svgrepo.com, Generator: SVG Repo Mixer Tools -->
<svg height="800px" width="800px" version="1.1" id="Layer_1" xmlns="http://www.w3.org/2000/svg" xmlns:xlink="http://www.w3.org/1999/xlink" 
	 viewBox="0 0 511.98 511.98" xml:space="preserve">
<path style="fill:#FC6E51;" d="M460.174,429.014l-1.812-0.516c-26.469-7.109-35.405-13.938-47.187-18.422
	c-41.811-15.921-52.685-27.404-55.466-32.826c-0.094-0.188-0.156-0.391-0.25-0.594l-0.343-48.545l-99.13-1.124l-99.105,1.124
	l-0.344,48.545c-0.094,0.203-0.172,0.406-0.281,0.594c-2.781,5.422-13.64,16.905-55.436,32.826
	c-11.78,4.484-20.733,11.312-47.201,18.422l-1.828,0.516c-24.093,7.969-40.295,30.311-40.295,55.529v27.437h244.49h244.498v-27.437
	C500.484,459.325,484.265,436.983,460.174,429.014z"/>
<path style="fill:#DBAFA5;" d="M386.769,399.719c-21.999-10.578-28.904-18.296-31.061-22.468c-0.094-0.188-0.156-0.391-0.25-0.594
	l-0.343-48.545l-99.13-1.124l-99.105,1.124l-0.344,48.545c-0.094,0.203-0.172,0.406-0.281,0.594
	c-2.125,4.172-9.031,11.89-31.03,22.468c17.703,17.827,55.982,43.092,130.761,43.092
	C330.772,442.81,369.052,417.546,386.769,399.719z"/>
<path style="fill:#EAC6BB;" d="M393.519,234.178c0,89.356-85.184,171.602-137.533,171.602c-52.342,0-137.526-82.245-137.526-171.602
	c0-89.372,61.576-148.323,137.526-148.323C331.96,85.856,393.519,144.807,393.519,234.178z"/>
<path style="fill:#E9573F;" d="M397.082,404.389c-8.281-3.547-14.938-6.827-20.312-9.827c-3.187,2.984-6.999,6.156-11.593,9.358
	c-33.342,23.328-77.777,28.219-109.19,28.219c-55.904,0-89.527-14.859-107.871-27.312c-5.14-3.5-9.405-6.999-12.89-10.28
	c-5.359,3-12.031,6.296-20.327,9.843c18.155,19.703,58.998,49.077,141.088,49.077C338.085,453.467,378.926,424.093,397.082,404.389z
	"/>
<path style="fill:#965353;" d="M326.991,93.574c0,0-2.688-23.78,25.812-40.889c12.029-7.25-180.751-41.607-229.125,80.215
	c-18.187,45.765-4.75,113.121-4.75,113.121l41.905-75.122c0,0,45.67,10.656,95.152,10.656c49.506,0,96.817-10.656,96.817-10.656
	l40.716,63.482c0,0,15.656-60.935-1.875-101.34C374.114,92.637,326.991,93.574,326.991,93.574z"/>
<g>
	<path style="fill:#CCD1D9;" d="M64.275,511.98c-5.891,0-10.672-4.781-10.672-10.672V10.672C53.603,4.781,58.384,0,64.275,0
		s10.656,4.781,10.656,10.672v490.637C74.931,507.199,70.166,511.98,64.275,511.98z"/>
	<path style="fill:#CCD1D9;" d="M448.236,511.98c-5.906,0-10.688-4.781-10.688-10.672V10.672C437.548,4.781,442.329,0,448.236,0
		c5.875,0,10.656,4.781,10.656,10.672v490.637C458.892,507.199,454.111,511.98,448.236,511.98z"/>
	<path style="fill:#CCD1D9;" d="M320.241,511.98c-5.906,0-10.655-4.781-10.655-10.672V10.672C309.586,4.781,314.335,0,320.241,0
		c5.875,0,10.656,4.781,10.656,10.672v490.637C330.897,507.199,326.116,511.98,320.241,511.98z"/>
	<path style="fill:#CCD1D9;" d="M192.255,511.98c-5.891,0-10.656-4.781-10.656-10.672V10.672C181.599,4.781,186.365,0,192.255,0
		s10.671,4.781,10.671,10.672v490.637C202.926,507.199,198.144,511.98,192.255,511.98z"/>
</g>
</svg>